<?xml version="1.0" standalone="no"?><svg xmlns="http://www.w3.org/2000/svg" viewBox="0 0 1440 320"><path fill="#00E0E0" fill-opacity="1" d="M0,128L30,122.7C60,117,120,107,180,90.7C240,75,300,53,360,69.3C420,85,480,139,540,181.3C600,224,660,256,720,266.7C780,277,840,267,900,229.3C960,192,1020,128,1080,112C1140,96,1200,128,1260,160C1320,192,1380,224,1410,240L1440,256L1440,320L1410,320C1380,320,1320,320,1260,320C1200,320,1140,320,1080,320C1020,320,960,320,900,320C840,320,780,320,720,320C660,320,600,320,540,320C480,320,420,320,360,320C300,320,240,320,180,320C120,320,60,320,30,320L0,320Z"></path></svg>